PathFileType	4	(X/Y/Z)	C249e_D251_DD_1_S001_6.trc
DataRate	CameraRate	NumFrames	NumMarkers	Units	OrigDataRate	OrigDataStartFrame	OrigNumFrames
50.0	50.0	4	54	mm	50.0	103	274
Frame#	Time		Q_WaistRFront		Q_WaistLFront		Q_WaistL		Q_WaistR		Q_WaistBack		Q_LThighFrontLow		Q_RThighFrontLow		Q_RKneeIn		Q_RKneeOut		Q_RShinFrontHigh		Q_LKneeIn		Q_LKneeOut		Q_LShinFrontHigh		Q_RForefoot5		Q_RForefoot2		Q_RHeelBack		Q_RAnkleOut		Q_LForefoot5		Q_LForefoot2		Q_LHeelBack		Q_LAnkleOut		Q_SpineThoracic2		Q_Chest		Q_SpineThoracic12		Q_HeadL		Q_HeadR		Q_HeadFront		Q_LShoulderTop		Q_LArm		Q_LElbowOut		Q_LElbowIn		Q_LWristOut		Q_LWristIn		Q_LHand2		Q_RShoulderTop		Q_RArm		Q_RElbowOut		Q_RElbowIn		Q_RWristOut		Q_RWristIn		Q_RHand2		RHipAngles		LHipAngles		RKneeAngles		LKneeAngles		RAnkleAngles		LAnkleAngles		RShoulderAngles		LShoulderAngles		RElbowAngles		LElbowAngles		RWristAngles		LWristAngles		Neck
			X1	Y1	Z1	X2	Y2	Z2	X3	Y3	Z3	X4	Y4	Z4	X5	Y5	Z5	X6	Y6	Z6	X7	Y7	Z7	X8	Y8	Z8	X9	Y9	Z9	X10	Y10	Z10	X11	Y11	Z11	X12	Y12	Z12	X13	Y13	Z13	X14	Y14	Z14	X15	Y15	Z15	X16	Y16	Z16	X17	Y17	Z17	X18	Y18	Z18	X19	Y19	Z19	X20	Y20	Z20	X21	Y21	Z21	X22	Y22	Z22	X23	Y23	Z23	X24	Y24	Z24	X25	Y25	Z25	X26	Y26	Z26	X27	Y27	Z27	X28	Y28	Z28	X29	Y29	Z29	X30	Y30	Z30	X31	Y31	Z31	X32	Y32	Z32	X33	Y33	Z33	X34	Y34	Z34	X35	Y35	Z35	X36	Y36	Z36	X37	Y37	Z37	X38	Y38	Z38	X39	Y39	Z39	X40	Y40	Z40	X41	Y41	Z41	X42	Y42	Z42	X43	Y43	Z43	X44	Y44	Z44	X45	Y45	Z45	X46	Y46	Z46	X47	Y47	Z47	X48	Y48	Z48	X49	Y49	Z49	X50	Y50	Z50	X51	Y51	Z51	X52	Y52	Z52	X53	Y53	Z53	X54	Y54	Z54

103	2.04000	126.75617	561.59698	286.37186	-129.63289	554.58252	287.98285	-130.56055	599.72284	336.89252	125.82852	606.73730	335.28149	-2.36601	603.23004	336.08701	-180.68358	416.62894	112.51314	187.37184	417.92670	115.55992	156.24713	373.76920	66.81761	289.29474	400.12631	101.51096	244.66498	196.57832	144.82841	-147.20796	375.48645	63.43737	-281.88904	394.91260	96.35593	-227.11253	194.19473	141.20995	322.85431	33.32221	140.29704	273.94388	40.74501	133.03967	252.23811	36.17141	274.64633	309.74374	65.34069	264.15915	-295.17401	31.93627	134.15746	-246.53937	42.04550	128.45876	-228.12376	33.43127	270.34314	-286.75980	60.05919	259.36606	-2.61973	1040.81030	199.24734	-7.94252	406.87814	226.96828	-2.61973	1040.81030	199.24734	-78.44772	1147.41101	38.71879	61.53532	1148.96265	37.19138	-9.14948	1142.08948	-31.77540	-138.53604	1022.66467	92.91534	-269.53592	1040.74451	35.01142	-311.13562	1132.67664	2.37833	-295.56042	1070.35266	-74.25804	-271.90170	1270.29834	-187.05257	-224.86470	1263.14758	-171.67770	-179.43048	1336.51355	-203.66089	122.11915	1018.44244	73.89516	248.09448	1026.05115	-2.89719	292.67020	1114.07043	-41.78953	260.37155	1054.05139	-114.96412	229.72859	1256.89429	-220.68279	185.70467	1252.24622	-197.43864	148.07300	1338.61304	-203.98970	-101.66338	18.65385	-4.82630	-103.34074	17.98883	-6.10321	-83.21200	-4.78488	-0.50607	-85.11346	-4.88169	-1.22291	-23.96997	-5.64222	-19.62647	-26.37163	-5.99514	-20.07106	-24.23612	89.71454	-53.06402	22.59972	-86.84297	-52.90459	-53.48569	-86.84297	22.21859	-50.76187	-0.00000	22.21859	26.43163	8.32594	22.21859	18.73360	11.08350	-0.00000	-0.00000	-0.95438	-2.20297
104	2.06000	126.69579	556.90820	287.01111	-129.69171	549.67725	287.59494	-130.87532	595.53851	335.82361	125.51219	602.76947	335.23981	-2.68157	599.15399	335.53171	-181.27411	416.77100	111.07204	187.73338	417.68463	115.25584	156.78271	373.94879	66.02386	289.71887	400.29608	101.14938	244.86586	196.81126	144.53265	-147.86362	376.15033	61.62977	-282.57108	395.61096	94.41982	-227.63066	195.15273	140.22404	322.66772	33.04280	140.42865	273.84030	40.84432	133.01112	251.66098	36.60732	274.55487	309.42813	65.30801	264.21298	-295.54633	31.99867	134.17380	-246.93739	42.16397	128.35643	-228.47223	35.10908	270.32043	-287.17471	61.47659	259.07321	-2.66899	1033.71143	195.12410	-7.70871	400.05399	228.58459	-2.66899	1033.71143	195.12410	-78.67386	1139.37842	35.02832	61.29383	1142.13220	33.81877	-9.13634	1132.88953	-35.13169	-137.73798	1016.42432	92.06462	-269.16370	1032.56995	32.92097	-311.60553	1123.54492	-1.27320	-294.20844	1060.58789	-76.99486	-271.13675	1259.57507	-191.59180	-224.25357	1253.12354	-175.45650	-178.37703	1326.24475	-206.41441	122.26132	1011.25610	72.41479	247.71710	1017.70288	-5.48915	293.17178	1105.06519	-44.84245	258.26291	1046.06079	-117.64243	229.28777	1250.01465	-221.68021	185.66800	1246.06384	-197.56163	148.82889	1332.62549	-204.77788	-103.19178	18.60849	-4.88347	-104.90621	18.24744	-6.22165	-83.93726	-4.66414	-0.60796	-86.13131	-4.81674	-1.41296	-23.90245	-5.66411	-20.04816	-26.01611	-6.01675	-20.07643	-24.50188	91.60748	-53.29205	23.19471	-87.43795	-52.60305	-53.52673	-87.43795	21.69712	-50.95302	-0.00000	21.69712	25.09677	8.73418	21.69712	19.35307	11.58940	-0.00000	-0.00000	-1.66071	-1.61966
105	2.08000	126.51302	552.27905	287.86520	-129.86642	544.75879	288.30069	-131.15308	591.37378	335.79865	125.22638	598.89404	335.36313	-2.96335	595.13391	335.58087	-181.97745	416.00967	111.15990	187.54329	417.31659	115.17357	156.67596	373.89548	65.54574	289.54324	400.44412	100.78003	244.91127	196.93718	144.28770	-148.69983	375.83398	61.21165	-283.30762	395.15369	94.49072	-227.91379	194.83540	140.36128	322.89825	33.18879	140.40585	274.06915	40.93156	132.93796	251.77814	36.86127	274.46902	309.52502	65.60591	264.13608	-295.59808	32.00257	134.64212	-247.01259	42.19779	128.68311	-228.08031	34.90917	270.57373	-286.82999	61.27156	259.56342	-3.13819	1026.63611	190.69377	-7.81862	393.38965	231.23772	-3.13819	1026.63611	190.69377	-79.51357	1131.99304	32.49453	60.43142	1135.78064	31.46431	-9.81179	1125.00378	-37.45414	-136.83406	1010.66675	89.71144	-269.77811	1025.49231	30.61598	-313.56116	1115.67017	-3.99583	-294.39417	1052.99780	-79.52592	-270.70898	1252.38477	-193.29959	-224.07257	1246.22656	-176.35497	-177.28729	1318.96753	-205.59224	120.69356	1005.45007	70.23879	247.63333	1011.08984	-7.32128	293.87347	1097.76733	-47.26927	258.11908	1038.75659	-119.65266	229.15918	1242.60913	-223.89320	185.72206	1238.89600	-199.40997	146.74596	1323.33911	-208.35786	-104.68383	18.59122	-4.97780	-106.35443	18.39073	-6.30479	-84.57490	-4.56683	-0.63824	-86.80802	-4.83211	-1.41496	-23.87328	-5.67961	-20.05789	-26.20266	-6.02395	-20.06458	-24.44140	92.10577	-53.00172	23.26578	-88.50579	-52.22051	-54.00938	-88.50579	21.70902	-51.78791	-0.00000	21.70902	23.92933	10.13371	21.70902	19.81040	12.21784	-0.00000	-0.00000	-2.28139	-1.05149
106	2.10000	126.09200	546.75586	288.21896	-130.27933	538.97052	288.76523	-131.61700	586.30286	335.54691	124.75433	594.08820	335.00064	-3.43134	590.19556	335.27377	-183.08151	414.11533	111.13936	187.14580	416.51837	114.40172	156.41293	373.38593	64.31100	289.15530	400.40497	99.65832	244.97293	196.94760	143.85130	-149.93604	374.45419	60.58633	-284.40289	393.29849	94.69721	-228.08656	193.10713	139.99501	323.45358	33.50125	140.70074	274.61990	41.09051	133.10631	252.03511	37.35688	274.60010	309.72607	66.22900	264.31036	-295.17999	32.08996	133.78381	-246.61455	42.36553	127.79941	-227.12000	32.73861	269.47437	-285.90253	59.29810	259.13345	-3.86028	1018.56024	184.91321	-8.27300	385.93298	234.20917	-3.86028	1018.56024	184.91321	-80.13405	1124.95007	31.12349	59.81417	1128.49841	29.74058	-10.64570	1118.77856	-39.11385	-136.18803	1004.08423	87.33718	-270.48795	1018.62097	29.44711	-314.93622	1108.26929	-5.68856	-295.35718	1045.27759	-80.84648	-271.04681	1244.18115	-195.33234	-224.50391	1238.09509	-178.10684	-177.85950	1311.05444	-207.59309	118.72393	998.75775	67.71034	247.70868	1003.77258	-8.31249	294.38803	1089.73755	-49.27647	259.19827	1029.57837	-120.98806	229.91539	1231.83655	-228.20171	186.38138	1228.29248	-203.86595	147.21536	1312.60339	-213.46625	-106.20708	18.63286	-5.15729	-107.78855	18.50667	-6.21545	-85.46296	-4.45740	-0.63720	-87.33944	-4.82125	-1.37011	-23.91917	-5.63694	-20.06073	-27.10958	-6.01541	-20.07614	-24.22473	91.47536	-52.46704	23.10795	-88.99001	-52.03367	-54.42291	-88.99001	21.25439	-52.34731	-0.00000	21.25439	24.06888	10.34497	21.25439	19.34588	12.19924	-0.00000	-0.00000	-2.43877	-0.83162
